<svg id="图层_1" data-name="图层 1" xmlns="http://www.w3.org/2000/svg" viewBox="0 0 391.27 99.17"><defs><style>.cls-1{stroke:#000;stroke-miterlimit:10;}</style></defs><title>demon-logo-word</title><path class="cls-1" d="M171.81,347.3v37.52a35.43,35.43,0,1,0,9.92,24.59V347.3ZM146.3,434.92a25.51,25.51,0,1,1,25.51-25.51A25.52,25.52,0,0,1,146.3,434.92Z" transform="translate(-110.36 -346.8)"/><polygon class="cls-1" points="153.26 67.57 153.31 67.57 153.26 67.57 153.26 67.57"/><path class="cls-1" d="M226.17,374a35.43,35.43,0,1,0,32.16,50.31H246.89a25.51,25.51,0,0,1-45.75-9.92h60.12a36.89,36.89,0,0,0,.34-5A35.43,35.43,0,0,0,226.17,374Zm-25,30.47h0a25.52,25.52,0,0,1,50-.18l0,.18Z" transform="translate(-110.36 -346.8)"/><polyline class="cls-1" points="224.86 50.71 202.88 97.97 180.79 50.59 158.68 98 147.74 98 180.78 27.11 180.8 27.13 202.85 74.43 224.92 27.11 224.93 27.12 257.97 98 247.03 98 225.01 50.78"/><path class="cls-1" d="M400.77,374a35.43,35.43,0,1,0,35.43,35.43A35.43,35.43,0,0,0,400.77,374Zm0,60.94a25.51,25.51,0,1,1,25.51-25.51A25.51,25.51,0,0,1,400.77,434.92Z" transform="translate(-110.36 -346.8)"/><polygon class="cls-1" points="390.77 97.99 344.27 52.78 344.27 97.99 334.35 97.99 334.35 27.12 381.31 73.61 380.85 27.12 390.77 27.12 390.77 97.99"/></svg>