<?xml version="1.0" encoding="utf-8"?>
<!-- Generator: Adobe Illustrator 22.0.0, SVG Export Plug-In . SVG Version: 6.00 Build 0)  -->
<svg version="1.1" id="图层_1" xmlns="http://www.w3.org/2000/svg" xmlns:xlink="http://www.w3.org/1999/xlink" x="0px" y="0px"
	 viewBox="0 0 1536.4 175.7" style="enable-background:new 0 0 1536.4 175.7;" xml:space="preserve">
<style type="text/css">
	.st0{fill:none;stroke:#000000;stroke-miterlimit:10;}
	.st1{stroke:#000000;stroke-miterlimit:10;}
	.st2{opacity:0.7;}
</style>
<g>
	<path class="st0" d="M779.3,0.3"/>
	<path class="st1" d="M60.9,5.3H26.8c0,0-26.4,25.8-26.4,25.8l0,139.4c0,0,0,4.8,0,4.8h34.6c79.9,0,110.6-42,110.6-87.4
		C145.7,44.3,121.8,5.3,60.9,5.3z M41.7,168.9H7.1c0,0,0-4.8,0-4.8v-128h0l0-0.3v0.3h28.2c54.9-0.9,71.3,23.7,71.3,54.2
		c0,22.2-20.7,41.5-60.7,44l18.5-17.8c16.3,0.1,24.4-11.5,24.4-24.4c0-17.8-9.5-28-53.5-27.7c0,0,0,0,0,0c0,0,0,75.9,0,75.9
		c45.1,0,77.6-15.8,77.6-52c0-28-17.7-58.8-73.2-58.1l-28-0.7c0,0,17.5-17.8,17.5-17.8h33.5c58,0,76.3,42.4,76.6,74
		C139.7,119.6,120.8,166.8,41.7,168.9z M41.4,129.9c0,0,0-59.2,0-59.2c0,0,0,0,0,0c6.9,0.2,13,0.5,18.3,1.2l0,0.2v40L41.4,129.9z
		 M66,110.2c0,0,0-37.2,0-37.2c10.9,2.5,16.7,7.7,16.8,18.5C82.7,103.2,75,110,66,110.2z"/>
	<path class="st1" d="M253.6,29.1v49.1c-8.4-8.7-20.3-14.2-33.4-14.2c-25.6,0-46.3,20.7-46.3,46.3s20.7,46.3,46.3,46.3
		s46.3-20.7,46.3-46.3V29.1H253.6z M220.3,143.7c-18.4,0-33.4-14.9-33.4-33.4s14.9-33.4,33.4-33.4s33.4,14.9,33.4,33.4
		S238.7,143.7,220.3,143.7z"/>
	<g>
		<polygon class="st1" points="373.7,116.8 373.8,116.8 373.7,116.8 		"/>
		<path class="st1" d="M324.7,64c-25.6,0-46.3,20.7-46.3,46.3s20.7,46.3,46.3,46.3c18.6,0,34.7-11,42.1-26.9c0,0-15,0-15,0
			c-6.1,8.4-15.9,13.9-27.1,13.9c-16.2,0-29.7-11.6-32.7-26.9l0,0h78.6c0.3-2.1,0.5-4.3,0.5-6.5C371.1,84.7,350.3,64,324.7,64z
			 M292,103.8L292,103.8c3-15.3,16.5-26.9,32.7-26.9c16.1,0,29.6,11.4,32.7,26.6l0,0.2H292z"/>
	</g>
	<polyline class="st1" points="467.3,94.7 438.6,156.5 409.7,94.6 380.8,156.6 366.5,156.6 409.7,63.9 409.7,63.9 438.6,125.8 
		467.4,63.9 467.4,63.9 510.6,156.6 496.3,156.6 467.5,94.8 	"/>
	<path class="st1" d="M553.1,64c-25.6,0-46.3,20.7-46.3,46.3c0,25.6,20.7,46.3,46.3,46.3c25.6,0,46.3-20.7,46.3-46.3
		C599.4,84.7,578.6,64,553.1,64z M553.1,143.7c-18.4,0-33.4-14.9-33.4-33.4s14.9-33.4,33.4-33.4c18.4,0,33.4,14.9,33.4,33.4
		S571.5,143.7,553.1,143.7z"/>
	<polygon class="st1" points="684.3,156.6 623.5,97.5 623.5,156.6 610.5,156.6 610.5,63.9 671.9,124.7 671.3,63.9 684.3,63.9 	"/>
	<g>
		<path class="st2" d="M1298.1,145.5h-8.8l0.1-5.9h-0.2c-2.3,4-7.4,7.2-17,7.2c-5.5,0-9.8-1.5-12.9-4.4c-3.1-2.9-4.6-6.7-4.6-11.5
			c0-10.3,6.1-16.3,18.2-17.9l16.5-2.3c0-9.3-3.8-14-11.3-14c-6.6,0-12.6,2.3-17.9,6.8v-9c5.4-3.4,11.6-5.2,18.7-5.2
			c12.9,0,19.4,6.8,19.4,20.5V145.5z M1289.3,117.7l-13.3,1.8c-4.1,0.6-7.2,1.6-9.2,3c-2.1,1.4-3.1,4-3.1,7.7c0,2.7,1,4.9,2.9,6.6
			c1.9,1.7,4.5,2.6,7.7,2.6c4.4,0,8-1.5,10.8-4.6c2.8-3.1,4.3-6.9,4.3-11.6V117.7z"/>
		<path class="st2" d="M1078.3,145.6h-8.8l0.1-5.9h-0.2c-2.3,4-7.4,7.2-17,7.2c-5.5,0-9.8-1.5-12.9-4.4c-3.1-2.9-4.6-6.7-4.6-11.5
			c0-10.3,6.1-16.3,18.2-17.9l16.5-2.3c0-9.3-3.8-14-11.3-14c-6.6,0-12.6,2.3-17.9,6.8v-9c5.4-3.4,11.6-5.2,18.7-5.2
			c12.9,0,19.4,6.8,19.4,20.5V145.6z M1069.5,117.8l-13.3,1.8c-4.1,0.6-7.2,1.6-9.2,3c-2.1,1.4-3.1,4-3.1,7.7c0,2.7,1,4.9,2.9,6.6
			c1.9,1.7,4.5,2.6,7.7,2.6c4.4,0,8-1.5,10.8-4.6c2.8-3.1,4.3-6.9,4.3-11.6V117.8z"/>
		<path class="st2" d="M830,146.6v-77h21.9c6.7,0,11.9,1.6,15.8,4.9c3.9,3.3,5.9,7.5,5.9,12.7c0,4.4-1.2,9.5-3.7,12.7
			c-1.9,2.4-4.1,4.8-6.5,5.4v0.2c3.6,0.5,6.8,2.9,8.5,4.7c3.1,3.3,5.5,8.9,5.5,14.2c0,6.6-2.4,11.9-7.1,16s-10.7,6.1-17.9,6.1H830z
			 M839,77.7v24.9h9.2c4.9,0,8.8-1.2,11.7-3.6c2.8-2.4,4.2-5.7,4.2-10.1c0-7.5-4.9-11.2-14.8-11.2H839z M839,110.7v27.7h12.2
			c5.3,0,9.4-1.3,12.3-3.8c2.9-2.5,4.4-5.9,4.4-10.3c0-9.1-6.2-13.6-18.6-13.6H839z"/>
		<path class="st2" d="M886.3,77.6c-1.6,0-2.9-0.5-4-1.6c-1.1-1.1-1.7-2.4-1.7-4.1c0-1.6,0.6-3,1.7-4.1c1.1-1.1,2.5-1.6,4-1.6
			c1.6,0,3,0.5,4.1,1.6c1.1,1.1,1.7,2.5,1.7,4.1c0,1.6-0.6,2.9-1.7,4C889.3,77,887.9,77.6,886.3,77.6z M890.6,146.6h-8.8v-55h8.8
			V146.6z"/>
		<path class="st2" d="M946,142.2c0,20.2-9.7,30.3-29,30.3c-6.8,0-12.7-1.3-17.8-3.9v-8.8c6.2,3.4,12.1,5.2,17.7,5.2
			c13.5,0,20.3-7.2,20.3-21.6V140H937c-3.3,5.4-8.7,7.9-18.9,7.9c-6.8,0-12.3-2.4-16.5-7.3c-4.2-4.9-6.3-11.4-6.3-19.7
			c0-9.3,2.2-16.8,6.7-22.3c4.5-5.5,10.6-8.3,18.5-8.3c8.4,0,14,3,16.6,6.6h0.2l-0.1-5.3h8.8V142.2z M937.2,121.7v-8.1
			c0-4.4-1.5-8.1-4.4-11.2c-3-3.1-6.6-4.7-11-4.7c-5.4,0-9.7,2-12.8,5.9c-3.1,4-4.6,9.5-4.6,16.6c0,6.1,1.5,11,4.4,14.7
			c3,3.7,6.9,5.5,11.7,5.5c4.9,0,9-1.8,12.1-5.3C935.6,131.7,937.2,127.2,937.2,121.7z"/>
		<path class="st2" d="M972.9,146.6v-77h21.3c27.1,0,40.7,12.5,40.7,37.5c0,11.9-3.8,21.4-11.3,28.7c-7.5,7.2-17.6,10.8-30.3,10.8
			H972.9z M981.9,77.7v60.7h11.5c10.1,0,18-2.7,23.6-8.1c5.6-5.4,8.4-13.1,8.4-23c0-19.7-10.5-29.6-31.5-29.6H981.9z"/>
		<path class="st2" d="M1113.5,145.4c-2.1,1.1-4.8,1.7-8.2,1.7c-9.6,0-14.4-5.4-14.4-16.1V98.4h-9.5v-7.5h9.5V77.5l8.8-2.8v16.3
			h13.9v7.5h-13.9v31c0,3.7,0.6,6.3,1.9,7.9c1.3,1.6,3.3,2.4,6.2,2.4c2.2,0,4.1-0.6,5.7-1.8V145.4z"/>
		<path class="st2" d="M1159.4,145.9h-8.8l0.1-5.9h-0.2c-2.3,4-7.4,7.2-17,7.2c-5.5,0-9.8-1.5-12.9-4.4c-3.1-2.9-4.6-6.7-4.6-11.5
			c0-10.3,6.1-16.3,18.2-17.9l16.5-2.3c0-9.3-3.8-14-11.3-14c-6.6,0-12.6,2.3-17.9,6.8v-9c5.4-3.4,11.6-5.2,18.7-5.2
			c12.9,0,19.4,6.8,19.4,20.5V145.9z M1150.6,118.1l-13.3,1.8c-4.1,0.6-7.2,1.6-9.2,3c-2.1,1.4-3.1,4-3.1,7.7c0,2.7,1,4.9,2.9,6.6
			c1.9,1.7,4.5,2.6,7.7,2.6c4.4,0,8-1.5,10.8-4.6c2.8-3.1,4.3-6.9,4.3-11.6V118.1z"/>
		<path class="st2" d="M1200.4,116.8v29.1h-9v-77h21.2c8.2,0,14.6,2,19.1,6c4.5,4,6.8,9.7,6.8,17s-2.5,13.3-7.5,17.9
			c-5,4.7-11.8,7-20.4,7H1200.4z M1200.4,77v31.6h9.5c6.2,0,11-1.4,14.3-4.3c3.3-2.8,4.9-6.9,4.9-12.1c0-10.2-6-15.3-18-15.3H1200.4
			z"/>
		<path class="st2" d="M1250.7,145.9h-8.8V64.4h8.8V145.9z"/>
		<path class="st2" d="M1332.2,145.3c-2.1,1.1-4.8,1.7-8.2,1.7c-9.6,0-14.4-5.4-14.4-16.1V98.4h-9.5v-7.5h9.5V77.4l8.8-2.8v16.3
			h13.9v7.5h-13.9v31c0,3.7,0.6,6.3,1.9,7.9c1.3,1.6,3.3,2.4,6.2,2.4c2.2,0,4.1-0.6,5.7-1.8V145.3z"/>
		<path class="st2" d="M1369.4,72.2c-1.7-1-3.7-1.5-5.9-1.5c-6.2,0-9.2,3.9-9.2,11.7v8.5h12.9v7.5h-12.9v47.5h-8.8V98.4h-9.4v-7.5
			h9.4V82c0-5.8,1.7-10.3,5-13.7c3.3-3.3,7.5-5,12.5-5c2.7,0,4.8,0.3,6.4,1V72.2z"/>
		<path class="st2" d="M1392.6,146.5c-8.1,0-14.6-2.6-19.5-7.7c-4.9-5.1-7.3-12-7.3-20.4c0-9.2,2.5-16.5,7.6-21.6
			c5-5.2,11.9-7.8,20.5-7.8c8.2,0,14.6,2.5,19.2,7.6c4.6,5,6.9,12,6.9,21c0,8.8-2.5,15.8-7.4,21.1
			C1407.6,143.9,1400.9,146.5,1392.6,146.5z M1393.2,96.3c-5.7,0-10.1,1.9-13.4,5.8c-3.3,3.8-4.9,9.2-4.9,15.9
			c0,6.5,1.7,11.7,5,15.4s7.8,5.6,13.4,5.6c5.7,0,10.1-1.8,13.1-5.5c3.1-3.7,4.6-8.9,4.6-15.7c0-6.9-1.5-12.2-4.6-15.9
			C1403.3,98.2,1398.9,96.3,1393.2,96.3z"/>
		<path class="st2" d="M1453.2,97.8c-2.7-0.4-3.4-0.4-6.3-0.4c-3.8,0-7.3,2-9.8,5.5c-2.5,3.5-3.8,8.4-3.8,14.5v28h-8.8v-55h8.8
			l0,7.6h0.2c1.2-1.6,1.9-2.8,4.6-4.8c2.7-2,6-3,9.6-3.2c2.5-0.1,4-0.1,5.4,0.2V97.8z"/>
		<path class="st2" d="M1535.9,145.9h-8.8v-31.6c0-6.1-0.9-10.5-2.8-13.2c-1.9-2.7-5-4.1-9.5-4.1c-3.8,0-7,1.7-9.6,5.2
			c-2.6,3.4-3.9,7.6-3.9,12.4v31.4h-8.8v-32.7c0-10.8-4.2-16.2-12.5-16.2c-3.9,0-7.1,1.6-9.6,4.9c-2.5,3.2-3.8,7.5-3.8,12.6v31.4
			h-8.8v-55h8.8l0,6.7h0.2c3.7-5.8,9.6-7.9,17.1-7.9c3.8,0,7.1,0.9,9.8,3.1c2.8,2.3,4.3,4.1,5.1,6.5c3.6-6.8,8.5-9.7,18.9-9.7
			c12.1,0,18.2,7.5,18.2,22.4V145.9z"/>
	</g>
	<rect x="753.2" y="60.7" class="st2" width="9.1" height="92.7"/>
</g>
</svg>
