<?xml version="1.0" encoding="utf-8"?>
<!-- Generator: Adobe Illustrator 22.0.0, SVG Export Plug-In . SVG Version: 6.00 Build 0)  -->
<svg version="1.1" id="图层_1" xmlns="http://www.w3.org/2000/svg" xmlns:xlink="http://www.w3.org/1999/xlink" x="0px" y="0px"
	 style="enable-background:new 0 0 1728 1296;" xml:space="preserve">
<style type="text/css">
	.st0{fill:none;stroke:#000000;stroke-miterlimit:10;}
	.st1{stroke:#000000;stroke-miterlimit:10;}
	.st2{opacity:0.7;}
</style>
<g>
	<path class="st0" d="M875.1,566.6"/>
	<path class="st1" d="M156.7,571.6h-34.1c0,0-26.4,25.8-26.4,25.8l0,139.4c0,0,0,4.8,0,4.8h34.6c79.9,0,110.6-42,110.6-87.4
		C241.5,610.6,217.6,571.6,156.7,571.6z M137.6,735.1h-34.6c0,0,0-4.8,0-4.8v-128h0l0-0.3v0.3h28.2c54.9-0.9,71.3,23.7,71.3,54.2
		c0,22.2-20.7,41.5-60.7,44l18.5-17.8c16.3,0.1,24.4-11.5,24.4-24.4c0-17.8-9.5-28-53.5-27.7c0,0,0,0,0,0c0,0,0,75.9,0,75.9
		c45.1,0,77.6-15.8,77.6-52c0-28-17.7-58.8-73.2-58.1l-28-0.7c0,0,17.5-17.8,17.5-17.8h33.5c58,0,76.3,42.4,76.6,74
		C235.5,685.9,216.6,733.1,137.6,735.1z M137.2,696.2c0,0,0-59.2,0-59.2c0,0,0,0,0,0c6.9,0.2,13,0.5,18.3,1.2l0,0.2v40L137.2,696.2z
		 M161.8,676.4c0,0,0-37.2,0-37.2c10.9,2.5,16.7,7.7,16.8,18.5C178.5,669.5,170.8,676.3,161.8,676.4z"/>
	<path class="st1" d="M349.4,595.4v49.1c-8.4-8.7-20.3-14.2-33.4-14.2c-25.6,0-46.3,20.7-46.3,46.3c0,25.6,20.7,46.3,46.3,46.3
		s46.3-20.7,46.3-46.3v-81.2H349.4z M316.1,709.9c-18.4,0-33.4-14.9-33.4-33.4c0-18.4,14.9-33.4,33.4-33.4s33.4,14.9,33.4,33.4
		C349.4,695,334.5,709.9,316.1,709.9z"/>
	<g>
		<polygon class="st1" points="469.5,683.1 469.6,683.1 469.5,683.1 		"/>
		<path class="st1" d="M420.5,630.2c-25.6,0-46.3,20.7-46.3,46.3c0,25.6,20.7,46.3,46.3,46.3c18.6,0,34.7-11,42.1-26.9
			c0,0-15,0-15,0c-6.1,8.4-15.9,13.9-27.1,13.9c-16.2,0-29.7-11.6-32.7-26.9l0,0h78.6c0.3-2.1,0.5-4.3,0.5-6.5
			C466.9,651,446.1,630.2,420.5,630.2z M387.8,670.1L387.8,670.1c3-15.3,16.5-26.9,32.7-26.9c16.1,0,29.6,11.4,32.7,26.6l0,0.2
			H387.8z"/>
	</g>
	<polyline class="st1" points="563.1,661 534.4,722.8 505.5,660.9 476.6,722.9 462.3,722.9 505.5,630.2 505.5,630.2 534.4,692 
		563.2,630.2 563.2,630.2 606.5,722.9 592.1,722.9 563.4,661.1 	"/>
	<path class="st1" d="M648.9,630.2c-25.6,0-46.3,20.7-46.3,46.3c0,25.6,20.7,46.3,46.3,46.3c25.6,0,46.3-20.7,46.3-46.3
		C695.2,651,674.5,630.2,648.9,630.2z M648.9,709.9c-18.4,0-33.4-14.9-33.4-33.4c0-18.4,14.9-33.4,33.4-33.4
		c18.4,0,33.4,14.9,33.4,33.4C682.2,695,667.3,709.9,648.9,709.9z"/>
	<polygon class="st1" points="780.1,722.8 719.3,663.7 719.3,722.8 706.3,722.8 706.3,630.2 767.8,691 767.1,630.2 780.1,630.2 	"/>
	<g>
		<path class="st2" d="M1393.9,711.8h-8.8l0.1-5.9h-0.2c-2.3,4-7.4,7.2-17,7.2c-5.5,0-9.8-1.5-12.9-4.4c-3.1-2.9-4.6-6.7-4.6-11.5
			c0-10.3,6.1-16.3,18.2-17.9l16.5-2.3c0-9.3-3.8-14-11.3-14c-6.6,0-12.6,2.3-17.9,6.8v-9c5.4-3.4,11.6-5.2,18.7-5.2
			c12.9,0,19.4,6.8,19.4,20.5V711.8z M1385.1,684l-13.3,1.8c-4.1,0.6-7.2,1.6-9.2,3c-2.1,1.4-3.1,4-3.1,7.7c0,2.7,1,4.9,2.9,6.6
			c1.9,1.7,4.5,2.6,7.7,2.6c4.4,0,8-1.5,10.8-4.6c2.8-3.1,4.3-6.9,4.3-11.6V684z"/>
		<path class="st2" d="M1174.1,711.9h-8.8l0.1-5.9h-0.2c-2.3,4-7.4,7.2-17,7.2c-5.5,0-9.8-1.5-12.9-4.4c-3.1-2.9-4.6-6.7-4.6-11.5
			c0-10.3,6.1-16.3,18.2-17.9l16.5-2.3c0-9.3-3.8-14-11.3-14c-6.6,0-12.6,2.3-17.9,6.8v-9c5.4-3.4,11.6-5.2,18.7-5.2
			c12.9,0,19.4,6.8,19.4,20.5V711.9z M1165.3,684.1l-13.3,1.8c-4.1,0.6-7.2,1.6-9.2,3c-2.1,1.4-3.1,4-3.1,7.7c0,2.7,1,4.9,2.9,6.6
			c1.9,1.7,4.5,2.6,7.7,2.6c4.4,0,8-1.5,10.8-4.6c2.8-3.1,4.3-6.9,4.3-11.6V684.1z"/>
		<path class="st2" d="M925.8,712.8v-77h21.9c6.7,0,11.9,1.6,15.8,4.9c3.9,3.3,5.9,7.5,5.9,12.7c0,4.4-1.2,9.5-3.7,12.7
			c-1.9,2.4-4.1,4.8-6.5,5.4v0.2c3.6,0.5,6.8,2.9,8.5,4.7c3.1,3.3,5.5,8.9,5.5,14.2c0,6.6-2.4,11.9-7.1,16s-10.7,6.1-17.9,6.1H925.8
			z M934.8,644v24.9h9.2c4.9,0,8.8-1.2,11.7-3.6c2.8-2.4,4.2-5.7,4.2-10.1c0-7.5-4.9-11.2-14.8-11.2H934.8z M934.8,677v27.7H947
			c5.3,0,9.4-1.3,12.3-3.8c2.9-2.5,4.4-5.9,4.4-10.3c0-9.1-6.2-13.6-18.6-13.6H934.8z"/>
		<path class="st2" d="M982.1,643.9c-1.6,0-2.9-0.5-4-1.6c-1.1-1.1-1.7-2.4-1.7-4.1c0-1.6,0.6-3,1.7-4.1c1.1-1.1,2.5-1.6,4-1.6
			c1.6,0,3,0.5,4.1,1.6c1.1,1.1,1.7,2.5,1.7,4.1c0,1.6-0.6,2.9-1.7,4C985.1,643.3,983.7,643.9,982.1,643.9z M986.4,712.8h-8.8v-55
			h8.8V712.8z"/>
		<path class="st2" d="M1041.8,708.4c0,20.2-9.7,30.3-29,30.3c-6.8,0-12.7-1.3-17.8-3.9v-8.8c6.2,3.4,12.1,5.2,17.7,5.2
			c13.5,0,20.3-7.2,20.3-21.6v-3.4h-0.2c-3.3,5.4-8.7,7.9-18.9,7.9c-6.8,0-12.3-2.4-16.5-7.3c-4.2-4.9-6.3-11.4-6.3-19.7
			c0-9.3,2.2-16.8,6.7-22.3c4.5-5.5,10.6-8.3,18.5-8.3c8.4,0,14,3,16.6,6.6h0.2l-0.1-5.3h8.8V708.4z M1033,688v-8.1
			c0-4.4-1.5-8.1-4.4-11.2c-3-3.1-6.6-4.7-11-4.7c-5.4,0-9.7,2-12.8,5.9c-3.1,4-4.6,9.5-4.6,16.6c0,6.1,1.5,11,4.4,14.7
			c3,3.7,6.9,5.5,11.7,5.5c4.9,0,9-1.8,12.1-5.3C1031.4,697.9,1033,693.5,1033,688z"/>
		<path class="st2" d="M1068.7,712.8v-77h21.3c27.1,0,40.7,12.5,40.7,37.5c0,11.9-3.8,21.4-11.3,28.7c-7.5,7.2-17.6,10.8-30.3,10.8
			H1068.7z M1077.7,644v60.7h11.5c10.1,0,18-2.7,23.6-8.1c5.6-5.4,8.4-13.1,8.4-23c0-19.7-10.5-29.6-31.5-29.6H1077.7z"/>
		<path class="st2" d="M1209.3,711.7c-2.1,1.1-4.8,1.7-8.2,1.7c-9.6,0-14.4-5.4-14.4-16.1v-32.5h-9.5v-7.5h9.5v-13.4l8.8-2.8v16.3
			h13.9v7.5h-13.9v31c0,3.7,0.6,6.3,1.9,7.9c1.3,1.6,3.3,2.4,6.2,2.4c2.2,0,4.1-0.6,5.7-1.8V711.7z"/>
		<path class="st2" d="M1255.2,712.2h-8.8l0.1-5.9h-0.2c-2.3,4-7.4,7.2-17,7.2c-5.5,0-9.8-1.5-12.9-4.4c-3.1-2.9-4.6-6.7-4.6-11.5
			c0-10.3,6.1-16.3,18.2-17.9l16.5-2.3c0-9.3-3.8-14-11.3-14c-6.6,0-12.6,2.3-17.9,6.8v-9c5.4-3.4,11.6-5.2,18.7-5.2
			c12.9,0,19.4,6.8,19.4,20.5V712.2z M1246.4,684.4l-13.3,1.8c-4.1,0.6-7.2,1.6-9.2,3c-2.1,1.4-3.1,4-3.1,7.7c0,2.7,1,4.9,2.9,6.6
			c1.9,1.7,4.5,2.6,7.7,2.6c4.4,0,8-1.5,10.8-4.6c2.8-3.1,4.3-6.9,4.3-11.6V684.4z"/>
		<path class="st2" d="M1296.2,683v29.1h-9v-77h21.2c8.2,0,14.6,2,19.1,6c4.5,4,6.8,9.7,6.8,17s-2.5,13.3-7.5,17.9
			c-5,4.7-11.8,7-20.4,7H1296.2z M1296.2,643.3v31.6h9.5c6.2,0,11-1.4,14.3-4.3c3.3-2.8,4.9-6.9,4.9-12.1c0-10.2-6-15.3-18-15.3
			H1296.2z"/>
		<path class="st2" d="M1346.5,712.1h-8.8v-81.4h8.8V712.1z"/>
		<path class="st2" d="M1428.1,711.6c-2.1,1.1-4.8,1.7-8.2,1.7c-9.6,0-14.4-5.4-14.4-16.1v-32.5h-9.5v-7.5h9.5v-13.4l8.8-2.8v16.3
			h13.9v7.5h-13.9v31c0,3.7,0.6,6.3,1.9,7.9c1.3,1.6,3.3,2.4,6.2,2.4c2.2,0,4.1-0.6,5.7-1.8V711.6z"/>
		<path class="st2" d="M1465.2,638.5c-1.7-1-3.7-1.5-5.9-1.5c-6.2,0-9.2,3.9-9.2,11.7v8.5h12.9v7.5h-12.9v47.5h-8.8v-47.5h-9.4v-7.5
			h9.4v-8.9c0-5.8,1.7-10.3,5-13.7c3.3-3.3,7.5-5,12.5-5c2.7,0,4.8,0.3,6.4,1V638.5z"/>
		<path class="st2" d="M1488.4,712.8c-8.1,0-14.6-2.6-19.5-7.7c-4.9-5.1-7.3-12-7.3-20.4c0-9.2,2.5-16.5,7.6-21.6
			c5-5.2,11.9-7.8,20.5-7.8c8.2,0,14.6,2.5,19.2,7.6c4.6,5,6.9,12,6.9,21c0,8.8-2.5,15.8-7.4,21.1
			C1503.4,710.1,1496.7,712.8,1488.4,712.8z M1489,662.6c-5.7,0-10.1,1.9-13.4,5.8c-3.3,3.8-4.9,9.2-4.9,15.9c0,6.5,1.7,11.7,5,15.4
			s7.8,5.6,13.4,5.6c5.7,0,10.1-1.8,13.1-5.5c3.1-3.7,4.6-8.9,4.6-15.7c0-6.9-1.5-12.2-4.6-15.9
			C1499.1,664.5,1494.7,662.6,1489,662.6z"/>
		<path class="st2" d="M1549,664.1c-2.7-0.4-3.4-0.4-6.3-0.4c-3.8,0-7.3,2-9.8,5.5c-2.5,3.5-3.8,8.4-3.8,14.5v28h-8.8v-55h8.8l0,7.6
			h0.2c1.2-1.6,1.9-2.8,4.6-4.8c2.7-2,6-3,9.6-3.2c2.5-0.1,4-0.1,5.4,0.2V664.1z"/>
		<path class="st2" d="M1631.7,712.1h-8.8v-31.6c0-6.1-0.9-10.5-2.8-13.2c-1.9-2.7-5-4.1-9.5-4.1c-3.8,0-7,1.7-9.6,5.2
			c-2.6,3.4-3.9,7.6-3.9,12.4v31.4h-8.8v-32.7c0-10.8-4.2-16.2-12.5-16.2c-3.9,0-7.1,1.6-9.6,4.9c-2.5,3.2-3.8,7.5-3.8,12.6v31.4
			h-8.8v-55h8.8l0,6.7h0.2c3.7-5.8,9.6-7.9,17.1-7.9c3.8,0,7.1,0.9,9.8,3.1c2.8,2.3,4.3,4.1,5.1,6.5c3.6-6.8,8.5-9.7,18.9-9.7
			c12.1,0,18.2,7.5,18.2,22.4V712.1z"/>
	</g>
	<rect x="849" y="627" class="st2" width="9.1" height="92.7"/>
</g>
</svg>
