<svg id="图层_1" data-name="图层 1" xmlns="http://www.w3.org/2000/svg" viewBox="0 0 237.23 277.58"><defs><style>.cls-1{fill:#fff;}.cls-1,.cls-2{fill:#fff;stroke:#000;stroke-miterlimit:10;}</style></defs><title>demon-logo-icon</title><path class="cls-1" d="M233.42,473.53" transform="translate(-197.11 -215.29)"/><path class="cls-2" d="M295.93,215.79H240.51l-42.9,42V492.37h56.32c130,0,179.91-68.22,179.91-142.08C433.84,279.15,394.93,215.79,295.93,215.79ZM264.76,481.71H208.44V265.81h0v0H254.3c89.29-1.44,116,38.56,116,88.06,0,36.11-33.65,67.5-98.78,71.5l30.08-29c26.58.23,39.67-18.66,39.67-39.66,0-29-15.37-45.59-87-45h0V435.12c73.29,0,126.21-25.75,126.21-84.5,0-45.58-28.75-95.58-119-94.5L215.93,255l28.5-29h54.5c94.33,0,124.15,69,124.59,120.37C424,401.6,393.26,478.37,264.76,481.71Zm-.5-63.34V322.13h0A286.4,286.4,0,0,1,294,324l0,.33v65Zm39.88-32.12V325.82c17.77,4.08,27.22,12.51,27.25,30.05C331.41,375,318.89,386,304.14,386.25Z" transform="translate(-197.11 -215.29)"/></svg>